<svg width="44" height="34" viewBox="0 0 44 34" fill="none" xmlns="http://www.w3.org/2000/svg">
<path d="M36.7437 9.1235C36.397 8.6285 35.8279 8.33333 35.2199 8.33333H9.88568L7.74653 3.255C7.16818 1.88367 5.82612 1 4.32464 1H0V4.66667H4.32464L13.1185 25.5392C13.4058 26.2212 14.0806 26.6667 14.8294 26.6667H29.6589C30.4319 26.6667 31.1233 26.1918 31.3958 25.4787L36.9568 10.812C37.17 10.2473 37.0903 9.61667 36.7437 9.1235ZM28.3743 23H16.0659L11.4316 12H32.5451L28.3743 23Z" fill="white"/>
<circle cx="35" cy="9" r="9" fill="#F47521"/>
<path d="M32.4729 12.6172C32.4729 12.1968 32.5705 11.8177 32.7656 11.48C32.9608 11.1347 33.1973 10.8344 33.475 10.5792C33.7602 10.324 34.1318 10.0275 34.5897 9.68969C34.98 9.39694 35.2878 9.15299 35.513 8.95782C35.7457 8.75515 35.9408 8.54122 36.0985 8.31603C36.3087 8.01577 36.4137 7.68174 36.4137 7.31393C36.4137 7.02868 36.3162 6.78473 36.121 6.58206C35.9333 6.37188 35.6368 6.26679 35.2315 6.26679C34.7961 6.26679 34.4696 6.37188 34.2519 6.58206C34.0417 6.78473 33.9366 7.08123 33.9366 7.47156V7.9332H32.5968C32.5667 7.80559 32.5517 7.65547 32.5517 7.48282C32.5517 6.70216 32.8107 6.11666 33.3286 5.72633C33.8466 5.336 34.5034 5.14083 35.299 5.14083C35.9146 5.14083 36.4062 5.25718 36.774 5.48988C37.1494 5.72258 37.4121 6.01157 37.5622 6.35687C37.7123 6.69465 37.7874 7.0437 37.7874 7.404C37.7874 7.8769 37.6711 8.30852 37.4384 8.69885C37.2132 9.08168 36.9429 9.4082 36.6277 9.67843C36.3124 9.94866 35.9071 10.2639 35.4116 10.6242C35.2165 10.7593 35.0251 10.8982 34.8374 11.0408C34.6497 11.1835 34.4996 11.3111 34.387 11.4237C34.2594 11.5513 34.1693 11.6676 34.1168 11.7727H37.8324V13H32.4729V12.6172Z" fill="white"/>
<path d="M15.7561 34C17.2917 34 18.5366 32.7688 18.5366 31.25C18.5366 29.7312 17.2917 28.5 15.7561 28.5C14.2205 28.5 12.9756 29.7312 12.9756 31.25C12.9756 32.7688 14.2205 34 15.7561 34Z" fill="white"/>
<path d="M28.7317 34C30.2673 34 31.5122 32.7688 31.5122 31.25C31.5122 29.7312 30.2673 28.5 28.7317 28.5C27.1961 28.5 25.9512 29.7312 25.9512 31.25C25.9512 32.7688 27.1961 34 28.7317 34Z" fill="white"/>
</svg>
