<svg width="169" height="1146" viewBox="0 0 169 1146" fill="none" xmlns="http://www.w3.org/2000/svg">
<g filter="url(#filter0_d_241_2)">
<g opacity="0.3">
<path d="M8.17114 378.809C5.86899 378.809 4 380.678 4 382.98C4 385.282 5.86899 387.151 8.17114 387.151C10.4733 387.151 12.3423 385.282 12.3423 382.98C12.3423 380.678 10.4733 378.809 8.17114 378.809Z" fill="white"/>
<path d="M8.17114 454.675C5.86899 454.675 4 456.544 4 458.846C4 461.148 5.86899 463.017 8.17114 463.017C10.4733 463.017 12.3423 461.148 12.3423 458.846C12.3423 456.544 10.4733 454.675 8.17114 454.675Z" fill="white"/>
<path d="M8.17114 530.542C5.86899 530.542 4 532.411 4 534.713C4 537.015 5.86899 538.884 8.17114 538.884C10.4733 538.884 12.3423 537.015 12.3423 534.713C12.3423 532.411 10.4733 530.542 8.17114 530.542Z" fill="white"/>
<path d="M84.0377 387.151C86.3414 387.151 88.2089 385.283 88.2089 382.98C88.2089 380.676 86.3414 378.809 84.0377 378.809C81.7341 378.809 79.8666 380.676 79.8666 382.98C79.8666 385.283 81.7341 387.151 84.0377 387.151Z" fill="white"/>
<path d="M84.0377 454.675C81.7356 454.675 79.8666 456.544 79.8666 458.846C79.8666 461.148 81.7356 463.017 84.0377 463.017C86.3399 463.017 88.2089 461.148 88.2089 458.846C88.2089 456.544 86.3399 454.675 84.0377 454.675Z" fill="white"/>
<path d="M84.0377 530.542C81.7356 530.542 79.8666 532.411 79.8666 534.713C79.8666 537.015 81.7356 538.884 84.0377 538.884C86.3399 538.884 88.2089 537.015 88.2089 534.713C88.2089 532.411 86.3399 530.542 84.0377 530.542Z" fill="white"/>
<path d="M159.904 387.151C162.208 387.151 164.075 385.283 164.075 382.98C164.075 380.676 162.208 378.809 159.904 378.809C157.601 378.809 155.733 380.676 155.733 382.98C155.733 385.283 157.601 387.151 159.904 387.151Z" fill="white"/>
<path d="M159.904 454.675C157.602 454.675 155.733 456.544 155.733 458.846C155.733 461.148 157.602 463.017 159.904 463.017C162.206 463.017 164.075 461.148 164.075 458.846C164.075 456.544 162.206 454.675 159.904 454.675Z" fill="white"/>
<path d="M159.904 530.542C157.602 530.542 155.733 532.411 155.733 534.713C155.733 537.015 157.602 538.884 159.904 538.884C162.206 538.884 164.075 537.015 164.075 534.713C164.075 532.411 162.206 530.542 159.904 530.542Z" fill="white"/>
<path d="M8.17114 606.408C5.86899 606.408 4 608.277 4 610.579C4 612.882 5.86899 614.751 8.17114 614.751C10.4733 614.751 12.3423 612.882 12.3423 610.579C12.3423 608.277 10.4733 606.408 8.17114 606.408Z" fill="white"/>
<path d="M8.17114 682.275C5.86899 682.275 4 684.144 4 686.446C4 688.748 5.86899 690.617 8.17114 690.617C10.4733 690.617 12.3423 688.748 12.3423 686.446C12.3423 684.144 10.4733 682.275 8.17114 682.275Z" fill="white"/>
<path d="M8.17114 758.141C5.86899 758.141 4 760.01 4 762.313C4 764.615 5.86899 766.484 8.17114 766.484C10.4733 766.484 12.3423 764.615 12.3423 762.313C12.3423 760.01 10.4733 758.141 8.17114 758.141Z" fill="white"/>
<path d="M84.0377 606.408C81.7356 606.408 79.8666 608.277 79.8666 610.579C79.8666 612.882 81.7356 614.751 84.0377 614.751C86.3399 614.751 88.2089 612.882 88.2089 610.579C88.2089 608.277 86.3399 606.408 84.0377 606.408Z" fill="white"/>
<path d="M84.0377 682.275C81.7356 682.275 79.8666 684.144 79.8666 686.446C79.8666 688.748 81.7356 690.617 84.0377 690.617C86.3399 690.617 88.2089 688.748 88.2089 686.446C88.2089 684.144 86.3399 682.275 84.0377 682.275Z" fill="white"/>
<path d="M84.0377 758.141C81.7356 758.141 79.8666 760.01 79.8666 762.313C79.8666 764.615 81.7356 766.484 84.0377 766.484C86.3399 766.484 88.2089 764.615 88.2089 762.313C88.2089 760.01 86.3399 758.141 84.0377 758.141Z" fill="white"/>
<path d="M159.904 606.408C157.602 606.408 155.733 608.277 155.733 610.579C155.733 612.882 157.602 614.751 159.904 614.751C162.206 614.751 164.075 612.882 164.075 610.579C164.075 608.277 162.206 606.408 159.904 606.408Z" fill="white"/>
<path d="M159.904 682.275C157.602 682.275 155.733 684.144 155.733 686.446C155.733 688.748 157.602 690.617 159.904 690.617C162.206 690.617 164.075 688.748 164.075 686.446C164.075 684.144 162.206 682.275 159.904 682.275Z" fill="white"/>
<path d="M159.904 758.141C157.602 758.141 155.733 760.01 155.733 762.313C155.733 764.615 157.602 766.484 159.904 766.484C162.206 766.484 164.075 764.615 164.075 762.313C164.075 760.01 162.206 758.141 159.904 758.141Z" fill="white"/>
<path d="M8.17114 834C5.86899 834 4 835.869 4 838.171C4 840.473 5.86899 842.342 8.17114 842.342C10.4733 842.342 12.3423 840.473 12.3423 838.171C12.3423 835.869 10.4733 834 8.17114 834Z" fill="white"/>
<path d="M8.17114 909.867C5.86899 909.867 4 911.736 4 914.038C4 916.34 5.86899 918.209 8.17114 918.209C10.4733 918.209 12.3423 916.34 12.3423 914.038C12.3423 911.736 10.4733 909.867 8.17114 909.867Z" fill="white"/>
<path d="M8.17114 985.733C5.86899 985.733 4 987.602 4 989.904C4 992.206 5.86899 994.075 8.17114 994.075C10.4733 994.075 12.3423 992.206 12.3423 989.904C12.3423 987.602 10.4733 985.733 8.17114 985.733Z" fill="white"/>
<path d="M84.0377 834C81.7356 834 79.8666 835.869 79.8666 838.171C79.8666 840.473 81.7356 842.342 84.0377 842.342C86.3399 842.342 88.2089 840.473 88.2089 838.171C88.2089 835.869 86.3399 834 84.0377 834Z" fill="white"/>
<path d="M84.0377 909.867C81.7356 909.867 79.8666 911.736 79.8666 914.038C79.8666 916.34 81.7356 918.209 84.0377 918.209C86.3399 918.209 88.2089 916.34 88.2089 914.038C88.2089 911.736 86.3399 909.867 84.0377 909.867Z" fill="white"/>
<path d="M84.0377 985.733C81.7356 985.733 79.8666 987.602 79.8666 989.904C79.8666 992.206 81.7356 994.075 84.0377 994.075C86.3399 994.075 88.2089 992.206 88.2089 989.904C88.2089 987.602 86.3399 985.733 84.0377 985.733Z" fill="white"/>
<path d="M159.904 834C157.602 834 155.733 835.869 155.733 838.171C155.733 840.473 157.602 842.342 159.904 842.342C162.206 842.342 164.075 840.473 164.075 838.171C164.075 835.869 162.206 834 159.904 834Z" fill="white"/>
<path d="M159.904 909.867C157.602 909.867 155.733 911.736 155.733 914.038C155.733 916.34 157.602 918.209 159.904 918.209C162.206 918.209 164.075 916.34 164.075 914.038C164.075 911.736 162.206 909.867 159.904 909.867Z" fill="white"/>
<path d="M159.904 985.733C157.602 985.733 155.733 987.602 155.733 989.904C155.733 992.206 157.602 994.075 159.904 994.075C162.206 994.075 164.075 992.206 164.075 989.904C164.075 987.602 162.206 985.733 159.904 985.733Z" fill="white"/>
<path d="M8.17114 1061.6C5.86899 1061.6 4 1063.47 4 1065.77C4 1068.07 5.86899 1069.94 8.17114 1069.94C10.4733 1069.94 12.3423 1068.07 12.3423 1065.77C12.3423 1063.47 10.4733 1061.6 8.17114 1061.6Z" fill="white"/>
<path d="M8.17114 1137.47C5.86899 1137.47 4 1139.34 4 1141.64C4 1143.94 5.86899 1145.81 8.17114 1145.81C10.4733 1145.81 12.3423 1143.94 12.3423 1141.64C12.3423 1139.34 10.4733 1137.47 8.17114 1137.47Z" fill="white"/>
<path d="M84.0377 1069.94C86.3414 1069.94 88.2089 1068.07 88.2089 1065.77C88.2089 1063.47 86.3414 1061.6 84.0377 1061.6C81.7341 1061.6 79.8666 1063.47 79.8666 1065.77C79.8666 1068.07 81.7341 1069.94 84.0377 1069.94Z" fill="white"/>
<path d="M84.0377 1137.47C81.7356 1137.47 79.8666 1139.34 79.8666 1141.64C79.8666 1143.94 81.7356 1145.81 84.0377 1145.81C86.3399 1145.81 88.2089 1143.94 88.2089 1141.64C88.2089 1139.34 86.3399 1137.47 84.0377 1137.47Z" fill="white"/>
<path d="M159.904 1069.94C162.208 1069.94 164.075 1068.07 164.075 1065.77C164.075 1063.47 162.208 1061.6 159.904 1061.6C157.601 1061.6 155.733 1063.47 155.733 1065.77C155.733 1068.07 157.601 1069.94 159.904 1069.94Z" fill="white"/>
<path d="M159.904 1137.47C157.602 1137.47 155.733 1139.34 155.733 1141.64C155.733 1143.94 157.602 1145.81 159.904 1145.81C162.206 1145.81 164.075 1143.94 164.075 1141.64C164.075 1139.34 162.206 1137.47 159.904 1137.47Z" fill="white"/>
</g>
<g opacity="0.3">
<path d="M8.17114 0C5.86899 0 4 1.869 4 4.17114C4 6.47329 5.86899 8.34229 8.17114 8.34229C10.4733 8.34229 12.3423 6.47329 12.3423 4.17114C12.3423 1.869 10.4733 0 8.17114 0Z" fill="white"/>
<path d="M8.17114 75.8666C5.86899 75.8666 4 77.7356 4 80.0377C4 82.3399 5.86899 84.2089 8.17114 84.2089C10.4733 84.2089 12.3423 82.3399 12.3423 80.0377C12.3423 77.7356 10.4733 75.8666 8.17114 75.8666Z" fill="white"/>
<path d="M8.17114 151.733C5.86899 151.733 4 153.602 4 155.904C4 158.206 5.86899 160.075 8.17114 160.075C10.4733 160.075 12.3423 158.206 12.3423 155.904C12.3423 153.602 10.4733 151.733 8.17114 151.733Z" fill="white"/>
<path d="M84.0377 0C81.7356 0 79.8666 1.869 79.8666 4.17114C79.8666 6.47329 81.7356 8.34229 84.0377 8.34229C86.3399 8.34229 88.2089 6.47329 88.2089 4.17114C88.2089 1.869 86.3399 0 84.0377 0Z" fill="white"/>
<path d="M84.0377 75.8666C81.7356 75.8666 79.8666 77.7356 79.8666 80.0377C79.8666 82.3399 81.7356 84.2089 84.0377 84.2089C86.3399 84.2089 88.2089 82.3399 88.2089 80.0377C88.2089 77.7356 86.3399 75.8666 84.0377 75.8666Z" fill="white"/>
<path d="M84.0377 151.733C81.7356 151.733 79.8666 153.602 79.8666 155.904C79.8666 158.206 81.7356 160.075 84.0377 160.075C86.3399 160.075 88.2089 158.206 88.2089 155.904C88.2089 153.602 86.3399 151.733 84.0377 151.733Z" fill="white"/>
<path d="M159.904 0C157.602 0 155.733 1.869 155.733 4.17114C155.733 6.47329 157.602 8.34229 159.904 8.34229C162.206 8.34229 164.075 6.47329 164.075 4.17114C164.075 1.869 162.206 0 159.904 0Z" fill="white"/>
<path d="M159.904 75.8666C157.602 75.8666 155.733 77.7356 155.733 80.0377C155.733 82.3399 157.602 84.2089 159.904 84.2089C162.206 84.2089 164.075 82.3399 164.075 80.0377C164.075 77.7356 162.206 75.8666 159.904 75.8666Z" fill="white"/>
<path d="M159.904 151.733C157.602 151.733 155.733 153.602 155.733 155.904C155.733 158.206 157.602 160.075 159.904 160.075C162.206 160.075 164.075 158.206 164.075 155.904C164.075 153.602 162.206 151.733 159.904 151.733Z" fill="white"/>
<path d="M8.17114 227.6C5.86899 227.6 4 229.469 4 231.771C4 234.073 5.86899 235.942 8.17114 235.942C10.4733 235.942 12.3423 234.073 12.3423 231.771C12.3423 229.469 10.4733 227.6 8.17114 227.6Z" fill="white"/>
<path d="M8.17114 303.466C5.86899 303.466 4 305.335 4 307.637C4 309.94 5.86899 311.809 8.17114 311.809C10.4733 311.809 12.3423 309.94 12.3423 307.637C12.3423 305.335 10.4733 303.466 8.17114 303.466Z" fill="white"/>
<path d="M84.0377 235.942L88.2089 231.771C88.2089 231.771 86.3414 227.6 84.0377 227.6C81.7341 227.6 79.8666 229.467 79.8666 231.771C79.8666 234.074 81.7341 235.942 84.0377 235.942Z" fill="white"/>
<path d="M84.0377 303.466C81.7356 303.466 79.8666 305.335 79.8666 307.637C79.8666 309.94 84.0377 311.809 84.0377 311.809L88.2089 307.637C88.2089 305.335 86.3399 303.466 84.0377 303.466Z" fill="white"/>
<path d="M159.904 235.942C162.208 235.942 164.075 234.074 164.075 231.771C164.075 229.467 162.208 227.6 159.904 227.6C157.601 227.6 155.733 229.467 155.733 231.771C155.733 234.074 157.601 235.942 159.904 235.942Z" fill="white"/>
<path d="M159.904 303.466C157.602 303.466 155.733 305.335 155.733 307.637C155.733 309.94 157.602 311.809 159.904 311.809C162.206 311.809 164.075 309.94 164.075 307.637C164.075 305.335 162.206 303.466 159.904 303.466Z" fill="white"/>
</g>
</g>
<defs>
<filter id="filter0_d_241_2" x="0" y="0" width="168.075" height="1153.81" filterUnits="userSpaceOnUse" color-interpolation-filters="sRGB">
<feFlood flood-opacity="0" result="BackgroundImageFix"/>
<feColorMatrix in="SourceAlpha" type="matrix" values="0 0 0 0 0 0 0 0 0 0 0 0 0 0 0 0 0 0 127 0" result="hardAlpha"/>
<feOffset dy="4"/>
<feGaussianBlur stdDeviation="2"/>
<feComposite in2="hardAlpha" operator="out"/>
<feColorMatrix type="matrix" values="0 0 0 0 0 0 0 0 0 0 0 0 0 0 0 0 0 0 0.25 0"/>
<feBlend mode="normal" in2="BackgroundImageFix" result="effect1_dropShadow_241_2"/>
<feBlend mode="normal" in="SourceGraphic" in2="effect1_dropShadow_241_2" result="shape"/>
</filter>
</defs>
</svg>
