<svg width="682" height="285" viewBox="0 0 682 285" fill="none" xmlns="http://www.w3.org/2000/svg">
<mask id="path-1-outside-1_734_4083" maskUnits="userSpaceOnUse" x="-0.24707" y="-41" width="1111" height="326" fill="black">
<rect fill="white" x="-0.24707" y="-41" width="1111" height="326"/>
<path d="M43.9979 283L2.2761 -38.854H57.9052L80.1568 157.835L108.369 -38.4567H152.475L181.879 157.437L204.13 -38.854H258.965L217.64 283H162.011L130.62 79.1591L100.819 283H43.9979ZM294.397 283V-38.854H359.563V283H294.397ZM439.048 283V10.0201H389.379V-38.854H553.883V10.0201H505.008V283H439.048ZM583.873 283V-38.854H649.436V93.4637H706.257V-38.854H771.82V283H706.257V140.351H649.436V283H583.873ZM822.128 283V-38.854H887.294V283H822.128ZM936.581 283V-38.854H982.276L1053.8 128.828V-38.854H1107.84V283H1064.13L992.607 104.987V283H936.581Z"/>
</mask>
<path d="M43.9979 283L42.0145 283.257L42.2404 285H43.9979V283ZM2.2761 -38.854V-40.854H0.000105858L0.292694 -38.5969L2.2761 -38.854ZM57.9052 -38.854L59.8925 -39.0789L59.6917 -40.854H57.9052V-38.854ZM80.1568 157.835L78.1695 158.059L82.1365 158.119L80.1568 157.835ZM108.369 -38.4567V-40.4567H106.636L106.389 -38.7412L108.369 -38.4567ZM152.475 -38.4567L154.452 -38.7536L154.197 -40.4567H152.475V-38.4567ZM181.879 157.437L179.901 157.734L183.866 157.662L181.879 157.437ZM204.13 -38.854V-40.854H202.344L202.143 -39.0793L204.13 -38.854ZM258.965 -38.854L260.948 -38.5993L261.238 -40.854H258.965V-38.854ZM217.64 283V285H219.4L219.624 283.255L217.64 283ZM162.011 283L160.034 283.304L160.295 285H162.011V283ZM130.62 79.1591L132.597 78.8547L128.641 78.8698L130.62 79.1591ZM100.819 283V285H102.548L102.798 283.289L100.819 283ZM45.9813 282.743L4.2595 -39.1112L0.292694 -38.5969L42.0145 283.257L45.9813 282.743ZM2.2761 -36.854H57.9052V-40.854H2.2761V-36.854ZM55.9179 -38.6292L78.1695 158.059L82.1441 157.61L59.8925 -39.0789L55.9179 -38.6292ZM82.1365 158.119L110.348 -38.1722L106.389 -38.7412L78.1772 157.55L82.1365 158.119ZM108.369 -36.4567H152.475V-40.4567H108.369V-36.4567ZM150.497 -38.1598L179.901 157.734L183.856 157.14L154.452 -38.7536L150.497 -38.1598ZM183.866 157.662L206.117 -38.6288L202.143 -39.0793L179.891 157.212L183.866 157.662ZM204.13 -36.854H258.965V-40.854H204.13V-36.854ZM256.981 -39.1087L215.656 282.745L219.624 283.255L260.948 -38.5993L256.981 -39.1087ZM217.64 281H162.011V285H217.64V281ZM163.988 282.696L132.597 78.8547L128.644 79.4635L160.034 283.304L163.988 282.696ZM128.641 78.8698L98.8401 282.711L102.798 283.289L132.599 79.4484L128.641 78.8698ZM100.819 281H43.9979V285H100.819V281ZM294.397 283H292.397V285H294.397V283ZM294.397 -38.854V-40.854H292.397V-38.854H294.397ZM359.563 -38.854H361.563V-40.854H359.563V-38.854ZM359.563 283V285H361.563V283H359.563ZM296.397 283V-38.854H292.397V283H296.397ZM294.397 -36.854H359.563V-40.854H294.397V-36.854ZM357.563 -38.854V283H361.563V-38.854H357.563ZM359.563 281H294.397V285H359.563V281ZM439.048 283H437.048V285H439.048V283ZM439.048 10.0201H441.048V8.02009H439.048V10.0201ZM389.379 10.0201H387.379V12.0201H389.379V10.0201ZM389.379 -38.854V-40.854H387.379V-38.854H389.379ZM553.883 -38.854H555.883V-40.854H553.883V-38.854ZM553.883 10.0201V12.0201H555.883V10.0201H553.883ZM505.008 10.0201V8.02009H503.008V10.0201H505.008ZM505.008 283V285H507.008V283H505.008ZM441.048 283V10.0201H437.048V283H441.048ZM439.048 8.02009H389.379V12.0201H439.048V8.02009ZM391.379 10.0201V-38.854H387.379V10.0201H391.379ZM389.379 -36.854H553.883V-40.854H389.379V-36.854ZM551.883 -38.854V10.0201H555.883V-38.854H551.883ZM553.883 8.02009H505.008V12.0201H553.883V8.02009ZM503.008 10.0201V283H507.008V10.0201H503.008ZM505.008 281H439.048V285H505.008V281ZM583.873 283H581.873V285H583.873V283ZM583.873 -38.854V-40.854H581.873V-38.854H583.873ZM649.436 -38.854H651.436V-40.854H649.436V-38.854ZM649.436 93.4637H647.436V95.4637H649.436V93.4637ZM706.257 93.4637V95.4637H708.257V93.4637H706.257ZM706.257 -38.854V-40.854H704.257V-38.854H706.257ZM771.82 -38.854H773.82V-40.854H771.82V-38.854ZM771.82 283V285H773.82V283H771.82ZM706.257 283H704.257V285H706.257V283ZM706.257 140.351H708.257V138.351H706.257V140.351ZM649.436 140.351V138.351H647.436V140.351H649.436ZM649.436 283V285H651.436V283H649.436ZM585.873 283V-38.854H581.873V283H585.873ZM583.873 -36.854H649.436V-40.854H583.873V-36.854ZM647.436 -38.854V93.4637H651.436V-38.854H647.436ZM649.436 95.4637H706.257V91.4637H649.436V95.4637ZM708.257 93.4637V-38.854H704.257V93.4637H708.257ZM706.257 -36.854H771.82V-40.854H706.257V-36.854ZM769.82 -38.854V283H773.82V-38.854H769.82ZM771.82 281H706.257V285H771.82V281ZM708.257 283V140.351H704.257V283H708.257ZM706.257 138.351H649.436V142.351H706.257V138.351ZM647.436 140.351V283H651.436V140.351H647.436ZM649.436 281H583.873V285H649.436V281ZM822.128 283H820.128V285H822.128V283ZM822.128 -38.854V-40.854H820.128V-38.854H822.128ZM887.294 -38.854H889.294V-40.854H887.294V-38.854ZM887.294 283V285H889.294V283H887.294ZM824.128 283V-38.854H820.128V283H824.128ZM822.128 -36.854H887.294V-40.854H822.128V-36.854ZM885.294 -38.854V283H889.294V-38.854H885.294ZM887.294 281H822.128V285H887.294V281ZM936.581 283H934.581V285H936.581V283ZM936.581 -38.854V-40.854H934.581V-38.854H936.581ZM982.276 -38.854L984.116 -39.6387L983.598 -40.854H982.276V-38.854ZM1053.8 128.828L1051.96 129.613L1055.8 128.828H1053.8ZM1053.8 -38.854V-40.854H1051.8V-38.854H1053.8ZM1107.84 -38.854H1109.84V-40.854H1107.84V-38.854ZM1107.84 283V285H1109.84V283H1107.84ZM1064.13 283L1062.27 283.746L1062.78 285H1064.13V283ZM992.607 104.987L994.463 104.241L990.607 104.987H992.607ZM992.607 283V285H994.607V283H992.607ZM938.581 283V-38.854H934.581V283H938.581ZM936.581 -36.854H982.276V-40.854H936.581V-36.854ZM980.437 -38.0694L1051.96 129.613L1055.64 128.043L984.116 -39.6387L980.437 -38.0694ZM1055.8 128.828V-38.854H1051.8V128.828H1055.8ZM1053.8 -36.854H1107.84V-40.854H1053.8V-36.854ZM1105.84 -38.854V283H1109.84V-38.854H1105.84ZM1107.84 281H1064.13V285H1107.84V281ZM1065.99 282.254L994.463 104.241L990.752 105.733L1062.27 283.746L1065.99 282.254ZM990.607 104.987V283H994.607V104.987H990.607ZM992.607 281H936.581V285H992.607V281Z" fill="white" fill-opacity="0.3" mask="url(#path-1-outside-1_734_4083)"/>
</svg>
